<svg xmlns="http://www.w3.org/2000/svg" xmlns:xlink="http://www.w3.org/1999/xlink" contentStyleType="text/css" data-diagram-type="DESCRIPTION" height="270px" preserveAspectRatio="none" style="width:447px;height:270px;background:#FFFFFF;" version="1.1" viewBox="0 0 447 270" width="447px" zoomAndPan="magnify"><defs/><g><!--entity User--><g class="entity" data-entity="User" data-source-line="1" data-uid="ent0002" id="entity_User"><ellipse cx="145.5851" cy="14" fill="#F1F1F1" rx="8" ry="8" style="stroke:#181818;stroke-width:0.5;"/><path d="M145.5851,22 L145.5851,49 M132.5851,30 L158.5851,30 M145.5851,49 L132.5851,64 M145.5851,49 L158.5851,64" fill="none" style="stroke:#181818;stroke-width:0.5;"/><text fill="#000000" font-family="sans-serif" font-size="14" lengthAdjust="spacing" textLength="31.9102" x="129.63" y="78.4951">User</text></g><!--entity Controller--><g class="entity" data-entity="Controller" data-source-line="2" data-uid="ent0003" id="entity_Controller"><ellipse cx="40.5864" cy="197.29" fill="#F1F1F1" rx="8" ry="8" style="stroke:#181818;stroke-width:0.5;"/><path d="M40.5864,205.29 L40.5864,232.29 M27.5864,213.29 L53.5864,213.29 M40.5864,232.29 L27.5864,247.29 M40.5864,232.29 L53.5864,247.29" fill="none" style="stroke:#181818;stroke-width:0.5;"/><text fill="#000000" font-family="sans-serif" font-size="14" lengthAdjust="spacing" textLength="69.1729" x="6" y="261.7851">Controller</text></g><!--entity Driver--><g class="entity" data-entity="Driver" data-source-line="3" data-uid="ent0004" id="entity_Driver"><ellipse cx="145.5903" cy="197.29" fill="#F1F1F1" rx="8" ry="8" style="stroke:#181818;stroke-width:0.5;"/><path d="M145.5903,205.29 L145.5903,232.29 M132.5903,213.29 L158.5903,213.29 M145.5903,232.29 L132.5903,247.29 M145.5903,232.29 L158.5903,247.29" fill="none" style="stroke:#181818;stroke-width:0.5;"/><text fill="#000000" font-family="sans-serif" font-size="14" lengthAdjust="spacing" textLength="71.6406" x="109.77" y="261.7851">Car Driver</text></g><!--entity PaymentService--><g class="entity" data-entity="PaymentService" data-source-line="4" data-uid="ent0005" id="entity_PaymentService"><ellipse cx="303.5906" cy="14" fill="#F1F1F1" rx="8" ry="8" style="stroke:#181818;stroke-width:0.5;"/><path d="M303.5906,22 L303.5906,49 M290.5906,30 L316.5906,30 M303.5906,49 L290.5906,64 M303.5906,49 L316.5906,64" fill="none" style="stroke:#181818;stroke-width:0.5;"/><text fill="#000000" font-family="sans-serif" font-size="14" lengthAdjust="spacing" textLength="113.6611" x="246.76" y="78.4951">PaymentService</text></g><!--entity Admin--><g class="entity" data-entity="Admin" data-source-line="5" data-uid="ent0006" id="entity_Admin"><ellipse cx="417.5821" cy="14" fill="#F1F1F1" rx="8" ry="8" style="stroke:#181818;stroke-width:0.5;"/><path d="M417.5821,22 L417.5821,49 M404.5821,30 L430.5821,30 M417.5821,49 L404.5821,64 M417.5821,49 L430.5821,64" fill="none" style="stroke:#181818;stroke-width:0.5;"/><text fill="#000000" font-family="sans-serif" font-size="14" lengthAdjust="spacing" textLength="44.8643" x="395.15" y="78.4951">Admin</text></g><!--entity OPP--><g class="entity" data-entity="OPP" data-source-line="7" data-uid="ent0007" id="entity_OPP"><ellipse cx="305.5898" cy="226.9357" fill="#F1F1F1" rx="89.2198" ry="23.3557" style="stroke:#181818;stroke-width:0.5;"/><text fill="#000000" font-family="sans-serif" font-size="14" font-style="italic" lengthAdjust="spacing" textLength="136.0557" x="237.5619" y="227.2263">&#171;Software System&#187;</text><text fill="#000000" font-family="sans-serif" font-size="14" lengthAdjust="spacing" textLength="27.9043" x="291.6376" y="243.5232">OPP</text></g><!--reverse link User to Controller--><g class="link" data-entity-1="User" data-entity-2="Controller" data-source-line="9" data-uid="lnk8" id="link_User_Controller"><path d="M120.1568,88.545 C102.1568,119.615 82.22,154.05 62.34,188.38" fill="none" id="User-backto-Controller" style="stroke:#181818;stroke-width:1;"/><polygon fill="none" points="129.18,72.97,114.9651,85.5373,125.3485,91.5528,129.18,72.97" style="stroke:#181818;stroke-width:1;"/></g><!--reverse link User to Driver--><g class="link" data-entity-1="User" data-entity-2="Driver" data-source-line="10" data-uid="lnk9" id="link_User_Driver"><path d="M145.59,100.21 C145.59,131.32 145.59,157.32 145.59,188.42" fill="none" id="User-backto-Driver" style="stroke:#181818;stroke-width:1;"/><polygon fill="none" points="145.59,82.21,139.59,100.21,151.59,100.21,145.59,82.21" style="stroke:#181818;stroke-width:1;"/></g><!--link Admin to OPP--><g class="link" data-entity-1="Admin" data-entity-2="OPP" data-source-line="12" data-uid="lnk10" id="link_Admin_OPP"><path d="M394.92,81.33 C372.29,117.96 341.4041,167.9659 322.5441,198.4859" fill="none" id="Admin-to-OPP" style="stroke:#181818;stroke-width:1;"/><polygon fill="#181818" points="319.39,203.59,327.5239,198.0366,322.0184,199.3366,320.7184,193.8311,319.39,203.59" style="stroke:#181818;stroke-width:1;"/><text fill="#000000" font-family="sans-serif" font-size="13" lengthAdjust="spacing" textLength="20.1538" x="376.59" y="139.8569">CLI</text></g><!--link User to OPP--><g class="link" data-entity-1="User" data-entity-2="OPP" data-source-line="13" data-uid="lnk11" id="link_User_OPP"><path d="M161.78,64.28 C180.8,87.23 213.48,126.21 242.59,158.79 C256.22,174.05 267.8342,186.4931 280.1742,199.4631" fill="none" id="User-to-OPP" style="stroke:#181818;stroke-width:1;"/><polygon fill="#181818" points="284.31,203.81,281.0043,194.5325,280.8635,200.1876,275.2084,200.0468,284.31,203.81" style="stroke:#181818;stroke-width:1;"/><text fill="#000000" font-family="sans-serif" font-size="13" lengthAdjust="spacing" textLength="46.0332" x="246.8654" y="124.8569">Totem/</text><text fill="#000000" font-family="sans-serif" font-size="13" lengthAdjust="spacing" textLength="29.7769" x="254.9936" y="139.9897">App/</text><text fill="#000000" font-family="sans-serif" font-size="13" lengthAdjust="spacing" textLength="52.584" x="243.59" y="155.1225">Website</text></g><!--link PaymentService to OPP--><g class="link" data-entity-1="PaymentService" data-entity-2="OPP" data-source-line="14" data-uid="lnk12" id="link_PaymentService_OPP"><path d="M304,82.21 C304.4,118.72 304.9328,166.9604 305.2728,197.3004" fill="none" id="PaymentService-to-OPP" style="stroke:#181818;stroke-width:1;"/><polygon fill="#181818" points="305.34,203.3,309.2389,194.2557,305.284,198.3003,301.2394,194.3454,305.34,203.3" style="stroke:#181818;stroke-width:1;"/><text fill="#000000" font-family="sans-serif" font-size="13" lengthAdjust="spacing" textLength="27.3394" x="306.59" y="139.8569">APIs</text></g><!--SRC=[LKuz2uCm4DtlLnnExH2w1n74BaB1G5gwT4dRAmGqaIHOXFxunYYeo_6-UFVupPFZg3nE07XbJN2sRHTnfT5I3izE3uirG-12ZHsP8CaD-aN9sal0otUdJN8I0iWQ8RA97o8uOfvB-mbVvGZbw0DrHG4mxS7ynzXsn2ekxo4r8cC5nYhaM5tgERLALnihJmzJzdsyTtfw7GZs8pVnKjJ-3m00]--></g></svg>