<svg xmlns="http://www.w3.org/2000/svg" xmlns:xlink="http://www.w3.org/1999/xlink" contentStyleType="text/css" data-diagram-type="CLASS" height="1016px" preserveAspectRatio="none" style="width:528px;height:1016px;background:#FFFFFF;" version="1.1" viewBox="0 0 528 1016" width="528px" zoomAndPan="magnify"><defs/><g><!--class User--><g class="entity" data-entity="User" data-source-line="1" data-uid="ent0002" id="entity_User"><rect fill="#F1F1F1" height="162.0781" rx="2.5" ry="2.5" style="stroke:#181818;stroke-width:0.5;" width="151.0498" x="312.68" y="7"/><ellipse cx="367.9998" cy="23" fill="#ADD1B2" rx="11" ry="11" style="stroke:#181818;stroke-width:1;"/><path d="M370.9686,28.6406 Q370.3904,28.9375 369.7498,29.0781 Q369.1092,29.2344 368.4061,29.2344 Q365.9061,29.2344 364.5779,27.5938 Q363.2654,25.9375 363.2654,22.8125 Q363.2654,19.6875 364.5779,18.0313 Q365.9061,16.375 368.4061,16.375 Q369.1092,16.375 369.7498,16.5313 Q370.4061,16.6875 370.9686,16.9844 L370.9686,19.7031 Q370.3436,19.125 369.7498,18.8594 Q369.1561,18.5781 368.5311,18.5781 Q367.1873,18.5781 366.4998,19.6563 Q365.8123,20.7188 365.8123,22.8125 Q365.8123,24.9063 366.4998,25.9844 Q367.1873,27.0469 368.5311,27.0469 Q369.1561,27.0469 369.7498,26.7813 Q370.3436,26.5 370.9686,25.9219 L370.9686,28.6406 Z " fill="#000000"/><text fill="#000000" font-family="sans-serif" font-size="14" lengthAdjust="spacing" textLength="31.9102" x="388.4998" y="27.8467">User</text><line style="stroke:#181818;stroke-width:0.5;" x1="313.68" x2="462.7298" y1="39" y2="39"/><ellipse cx="323.68" cy="52.6484" fill="none" rx="3" ry="3" style="stroke:#038048;stroke-width:1;"/><text fill="#000000" font-family="sans-serif" font-size="14" lengthAdjust="spacing" textLength="125.0498" x="332.68" y="55.9951">Integer username</text><ellipse cx="323.68" cy="68.9453" fill="none" rx="3" ry="3" style="stroke:#038048;stroke-width:1;"/><text fill="#000000" font-family="sans-serif" font-size="14" lengthAdjust="spacing" textLength="85.9346" x="332.68" y="72.292">String name</text><ellipse cx="323.68" cy="85.2422" fill="none" rx="3" ry="3" style="stroke:#038048;stroke-width:1;"/><text fill="#000000" font-family="sans-serif" font-size="14" lengthAdjust="spacing" textLength="107.8574" x="332.68" y="88.5889">String surname</text><ellipse cx="323.68" cy="101.5391" fill="none" rx="3" ry="3" style="stroke:#038048;stroke-width:1;"/><text fill="#000000" font-family="sans-serif" font-size="14" lengthAdjust="spacing" textLength="84.8408" x="332.68" y="104.8857">String email</text><ellipse cx="323.68" cy="117.8359" fill="none" rx="3" ry="3" style="stroke:#038048;stroke-width:1;"/><text fill="#000000" font-family="sans-serif" font-size="14" lengthAdjust="spacing" textLength="112.9434" x="332.68" y="121.1826">String password</text><line style="stroke:#181818;stroke-width:0.5;" x1="313.68" x2="462.7298" y1="128.4844" y2="128.4844"/><ellipse cx="323.68" cy="142.1328" fill="#84BE84" rx="3" ry="3" style="stroke:#038048;stroke-width:1;"/><text fill="#000000" font-family="sans-serif" font-size="14" lengthAdjust="spacing" textLength="45.0283" x="332.68" y="145.4795">login()</text><ellipse cx="323.68" cy="158.4297" fill="#84BE84" rx="3" ry="3" style="stroke:#038048;stroke-width:1;"/><text fill="#000000" font-family="sans-serif" font-size="14" lengthAdjust="spacing" textLength="55.1934" x="332.68" y="161.7764">logout()</text></g><!--class Driver--><g class="entity" data-entity="Driver" data-source-line="11" data-uid="ent0003" id="entity_Driver"><rect fill="#F1F1F1" height="96.8906" rx="2.5" ry="2.5" style="stroke:#181818;stroke-width:0.5;" width="91.2217" x="266.59" y="246.08"/><ellipse cx="288.8537" cy="262.08" fill="#ADD1B2" rx="11" ry="11" style="stroke:#181818;stroke-width:1;"/><path d="M291.8225,267.7206 Q291.2443,268.0175 290.6037,268.1581 Q289.9631,268.3144 289.26,268.3144 Q286.76,268.3144 285.4318,266.6738 Q284.1193,265.0175 284.1193,261.8925 Q284.1193,258.7675 285.4318,257.1113 Q286.76,255.455 289.26,255.455 Q289.9631,255.455 290.6037,255.6113 Q291.26,255.7675 291.8225,256.0644 L291.8225,258.7831 Q291.1975,258.205 290.6037,257.9394 Q290.01,257.6581 289.385,257.6581 Q288.0412,257.6581 287.3537,258.7363 Q286.6662,259.7988 286.6662,261.8925 Q286.6662,263.9863 287.3537,265.0644 Q288.0412,266.1269 289.385,266.1269 Q290.01,266.1269 290.6037,265.8613 Q291.1975,265.58 291.8225,265.0019 L291.8225,267.7206 Z " fill="#000000"/><text fill="#000000" font-family="sans-serif" font-size="14" lengthAdjust="spacing" textLength="43.0801" x="304.4679" y="266.9267">Driver</text><line style="stroke:#181818;stroke-width:0.5;" x1="267.59" x2="356.8117" y1="278.08" y2="278.08"/><line style="stroke:#181818;stroke-width:0.5;" x1="267.59" x2="356.8117" y1="286.08" y2="286.08"/><ellipse cx="277.59" cy="299.7284" fill="#84BE84" rx="3" ry="3" style="stroke:#038048;stroke-width:1;"/><text fill="#000000" font-family="sans-serif" font-size="14" lengthAdjust="spacing" textLength="65.2217" x="286.59" y="303.0751">register()</text><ellipse cx="277.59" cy="316.0253" fill="#84BE84" rx="3" ry="3" style="stroke:#038048;stroke-width:1;"/><text fill="#000000" font-family="sans-serif" font-size="14" lengthAdjust="spacing" textLength="60.252" x="286.59" y="319.372">update()</text><ellipse cx="277.59" cy="332.3222" fill="#84BE84" rx="3" ry="3" style="stroke:#038048;stroke-width:1;"/><text fill="#000000" font-family="sans-serif" font-size="14" lengthAdjust="spacing" textLength="55.0293" x="286.59" y="335.6689">delete()</text></g><!--class Controller--><g class="entity" data-entity="Controller" data-source-line="17" data-uid="ent0004" id="entity_Controller"><rect fill="#F1F1F1" height="64.2969" rx="2.5" ry="2.5" style="stroke:#181818;stroke-width:0.5;" width="102.3164" x="419.05" y="372.97"/><ellipse cx="434.5646" cy="388.97" fill="#ADD1B2" rx="11" ry="11" style="stroke:#181818;stroke-width:1;"/><path d="M437.5333,394.6106 Q436.9552,394.9075 436.3146,395.0481 Q435.674,395.2044 434.9708,395.2044 Q432.4708,395.2044 431.1427,393.5638 Q429.8302,391.9075 429.8302,388.7825 Q429.8302,385.6575 431.1427,384.0013 Q432.4708,382.345 434.9708,382.345 Q435.674,382.345 436.3146,382.5013 Q436.9708,382.6575 437.5333,382.9544 L437.5333,385.6731 Q436.9083,385.095 436.3146,384.8294 Q435.7208,384.5481 435.0958,384.5481 Q433.7521,384.5481 433.0646,385.6263 Q432.3771,386.6888 432.3771,388.7825 Q432.3771,390.8763 433.0646,391.9544 Q433.7521,393.0169 435.0958,393.0169 Q435.7208,393.0169 436.3146,392.7513 Q436.9083,392.47 437.5333,391.8919 L437.5333,394.6106 Z " fill="#000000"/><text fill="#000000" font-family="sans-serif" font-size="14" lengthAdjust="spacing" textLength="69.1729" x="448.679" y="393.8167">Controller</text><line style="stroke:#181818;stroke-width:0.5;" x1="420.05" x2="520.3664" y1="404.97" y2="404.97"/><line style="stroke:#181818;stroke-width:0.5;" x1="420.05" x2="520.3664" y1="412.97" y2="412.97"/><ellipse cx="430.05" cy="426.6184" fill="#84BE84" rx="3" ry="3" style="stroke:#038048;stroke-width:1;"/><text fill="#000000" font-family="sans-serif" font-size="14" lengthAdjust="spacing" textLength="76.3164" x="439.05" y="429.9651">issueFine()</text></g><!--class Car--><g class="entity" data-entity="Car" data-source-line="21" data-uid="ent0005" id="entity_Car"><rect fill="#F1F1F1" height="129.4844" rx="2.5" ry="2.5" style="stroke:#181818;stroke-width:0.5;" width="115.8242" x="182.29" y="467.27"/><ellipse cx="224.1612" cy="483.27" fill="#ADD1B2" rx="11" ry="11" style="stroke:#181818;stroke-width:1;"/><path d="M227.13,488.9106 Q226.5519,489.2075 225.9112,489.3481 Q225.2706,489.5044 224.5675,489.5044 Q222.0675,489.5044 220.7394,487.8638 Q219.4269,486.2075 219.4269,483.0825 Q219.4269,479.9575 220.7394,478.3013 Q222.0675,476.645 224.5675,476.645 Q225.2706,476.645 225.9112,476.8013 Q226.5675,476.9575 227.13,477.2544 L227.13,479.9731 Q226.505,479.395 225.9112,479.1294 Q225.3175,478.8481 224.6925,478.8481 Q223.3487,478.8481 222.6612,479.9263 Q221.9737,480.9888 221.9737,483.0825 Q221.9737,485.1763 222.6612,486.2544 Q223.3487,487.3169 224.6925,487.3169 Q225.3175,487.3169 225.9112,487.0513 Q226.505,486.77 227.13,486.1919 L227.13,488.9106 Z " fill="#000000"/><text fill="#000000" font-family="sans-serif" font-size="14" lengthAdjust="spacing" textLength="24.1104" x="244.1326" y="488.1167">Car</text><line style="stroke:#181818;stroke-width:0.5;" x1="183.29" x2="297.1142" y1="499.27" y2="499.27"/><ellipse cx="193.29" cy="512.9184" fill="none" rx="3" ry="3" style="stroke:#038048;stroke-width:1;"/><text fill="#000000" font-family="sans-serif" font-size="14" lengthAdjust="spacing" textLength="81.6895" x="202.29" y="516.2651">String plate</text><ellipse cx="193.29" cy="529.2153" fill="none" rx="3" ry="3" style="stroke:#038048;stroke-width:1;"/><text fill="#000000" font-family="sans-serif" font-size="14" lengthAdjust="spacing" textLength="87.2129" x="202.29" y="532.562">String brand</text><ellipse cx="193.29" cy="545.5122" fill="none" rx="3" ry="3" style="stroke:#038048;stroke-width:1;"/><text fill="#000000" font-family="sans-serif" font-size="14" lengthAdjust="spacing" textLength="89.8242" x="202.29" y="548.8589">String model</text><line style="stroke:#181818;stroke-width:0.5;" x1="183.29" x2="297.1142" y1="556.1606" y2="556.1606"/><ellipse cx="193.29" cy="569.8091" fill="#84BE84" rx="3" ry="3" style="stroke:#038048;stroke-width:1;"/><text fill="#000000" font-family="sans-serif" font-size="14" lengthAdjust="spacing" textLength="37.2764" x="202.29" y="573.1557">add()</text><ellipse cx="193.29" cy="586.1059" fill="#84BE84" rx="3" ry="3" style="stroke:#038048;stroke-width:1;"/><text fill="#000000" font-family="sans-serif" font-size="14" lengthAdjust="spacing" textLength="55.0293" x="202.29" y="589.4526">delete()</text></g><!--class Ticket--><g class="entity" data-entity="Ticket" data-source-line="29" data-uid="ent0006" id="entity_Ticket"><rect fill="#F1F1F1" height="129.4844" rx="2.5" ry="2.5" style="stroke:#181818;stroke-width:0.5;" width="136.4072" x="7" y="681.9"/><ellipse cx="49.9264" cy="697.9" fill="#ADD1B2" rx="11" ry="11" style="stroke:#181818;stroke-width:1;"/><path d="M52.8951,703.5406 Q52.317,703.8375 51.6764,703.9781 Q51.0357,704.1344 50.3326,704.1344 Q47.8326,704.1344 46.5045,702.4938 Q45.192,700.8375 45.192,697.7125 Q45.192,694.5875 46.5045,692.9313 Q47.8326,691.275 50.3326,691.275 Q51.0357,691.275 51.6764,691.4313 Q52.3326,691.5875 52.8951,691.8844 L52.8951,694.6031 Q52.2701,694.025 51.6764,693.7594 Q51.0826,693.4781 50.4576,693.4781 Q49.1139,693.4781 48.4264,694.5563 Q47.7389,695.6188 47.7389,697.7125 Q47.7389,699.8063 48.4264,700.8844 Q49.1139,701.9469 50.4576,701.9469 Q51.0826,701.9469 51.6764,701.6813 Q52.2701,701.4 52.8951,700.8219 L52.8951,703.5406 Z " fill="#000000"/><text fill="#000000" font-family="sans-serif" font-size="14" lengthAdjust="spacing" textLength="42.3486" x="70.1322" y="702.7467">Ticket</text><line style="stroke:#181818;stroke-width:0.5;" x1="8" x2="142.4072" y1="713.9" y2="713.9"/><ellipse cx="18" cy="727.5484" fill="none" rx="3" ry="3" style="stroke:#038048;stroke-width:1;"/><text fill="#000000" font-family="sans-serif" font-size="14" lengthAdjust="spacing" textLength="67.5869" x="27" y="730.8951">Integer id</text><ellipse cx="18" cy="743.8453" fill="none" rx="3" ry="3" style="stroke:#038048;stroke-width:1;"/><text fill="#000000" font-family="sans-serif" font-size="14" lengthAdjust="spacing" textLength="110.4072" x="27" y="747.192">String startdate</text><ellipse cx="18" cy="760.1422" fill="none" rx="3" ry="3" style="stroke:#038048;stroke-width:1;"/><text fill="#000000" font-family="sans-serif" font-size="14" lengthAdjust="spacing" textLength="104.1729" x="27" y="763.4889">String enddate</text><ellipse cx="18" cy="776.4391" fill="none" rx="3" ry="3" style="stroke:#038048;stroke-width:1;"/><text fill="#000000" font-family="sans-serif" font-size="14" lengthAdjust="spacing" textLength="73.8691" x="27" y="779.7857">Float price</text><line style="stroke:#181818;stroke-width:0.5;" x1="8" x2="142.4072" y1="787.0875" y2="787.0875"/><ellipse cx="18" cy="800.7359" fill="#84BE84" rx="3" ry="3" style="stroke:#038048;stroke-width:1;"/><text fill="#000000" font-family="sans-serif" font-size="14" lengthAdjust="spacing" textLength="37.2764" x="27" y="804.0826">add()</text></g><!--class Payment--><g class="entity" data-entity="Payment" data-source-line="37" data-uid="ent0007" id="entity_Payment"><rect fill="#F1F1F1" height="113.1875" rx="2.5" ry="2.5" style="stroke:#181818;stroke-width:0.5;" width="119.0439" x="15.68" y="896.53"/><ellipse cx="41.9858" cy="912.53" fill="#ADD1B2" rx="11" ry="11" style="stroke:#181818;stroke-width:1;"/><path d="M44.9546,918.1706 Q44.3764,918.4675 43.7358,918.6081 Q43.0952,918.7644 42.3921,918.7644 Q39.8921,918.7644 38.5639,917.1238 Q37.2514,915.4675 37.2514,912.3425 Q37.2514,909.2175 38.5639,907.5613 Q39.8921,905.905 42.3921,905.905 Q43.0952,905.905 43.7358,906.0613 Q44.3921,906.2175 44.9546,906.5144 L44.9546,909.2331 Q44.3296,908.655 43.7358,908.3894 Q43.1421,908.1081 42.5171,908.1081 Q41.1733,908.1081 40.4858,909.1863 Q39.7983,910.2488 39.7983,912.3425 Q39.7983,914.4363 40.4858,915.5144 Q41.1733,916.5769 42.5171,916.5769 Q43.1421,916.5769 43.7358,916.3113 Q44.3296,916.03 44.9546,915.4519 L44.9546,918.1706 Z " fill="#000000"/><text fill="#000000" font-family="sans-serif" font-size="14" lengthAdjust="spacing" textLength="61.9199" x="58.4982" y="917.3767">Payment</text><line style="stroke:#181818;stroke-width:0.5;" x1="16.68" x2="133.7239" y1="928.53" y2="928.53"/><ellipse cx="26.68" cy="942.1784" fill="none" rx="3" ry="3" style="stroke:#038048;stroke-width:1;"/><text fill="#000000" font-family="sans-serif" font-size="14" lengthAdjust="spacing" textLength="67.5869" x="35.68" y="945.5251">Integer id</text><ellipse cx="26.68" cy="958.4753" fill="none" rx="3" ry="3" style="stroke:#038048;stroke-width:1;"/><text fill="#000000" font-family="sans-serif" font-size="14" lengthAdjust="spacing" textLength="93.0439" x="35.68" y="961.822">Float amount</text><ellipse cx="26.68" cy="974.7722" fill="none" rx="3" ry="3" style="stroke:#038048;stroke-width:1;"/><text fill="#000000" font-family="sans-serif" font-size="14" lengthAdjust="spacing" textLength="77.7998" x="35.68" y="978.1189">String date</text><line style="stroke:#181818;stroke-width:0.5;" x1="16.68" x2="133.7239" y1="985.4206" y2="985.4206"/><ellipse cx="26.68" cy="999.0691" fill="#84BE84" rx="3" ry="3" style="stroke:#038048;stroke-width:1;"/><text fill="#000000" font-family="sans-serif" font-size="14" lengthAdjust="spacing" textLength="37.2764" x="35.68" y="1002.4157">add()</text></g><!--class Fine--><g class="entity" data-entity="Fine" data-source-line="44" data-uid="ent0008" id="entity_Fine"><rect fill="#F1F1F1" height="145.7813" rx="2.5" ry="2.5" style="stroke:#181818;stroke-width:0.5;" width="119.0439" x="308.68" y="673.75"/><ellipse cx="349.6069" cy="689.75" fill="#ADD1B2" rx="11" ry="11" style="stroke:#181818;stroke-width:1;"/><path d="M352.5756,695.3906 Q351.9975,695.6875 351.3569,695.8281 Q350.7162,695.9844 350.0131,695.9844 Q347.5131,695.9844 346.185,694.3438 Q344.8725,692.6875 344.8725,689.5625 Q344.8725,686.4375 346.185,684.7813 Q347.5131,683.125 350.0131,683.125 Q350.7162,683.125 351.3569,683.2813 Q352.0131,683.4375 352.5756,683.7344 L352.5756,686.4531 Q351.9506,685.875 351.3569,685.6094 Q350.7631,685.3281 350.1381,685.3281 Q348.7944,685.3281 348.1069,686.4063 Q347.4194,687.4688 347.4194,689.5625 Q347.4194,691.6563 348.1069,692.7344 Q348.7944,693.7969 350.1381,693.7969 Q350.7631,693.7969 351.3569,693.5313 Q351.9506,693.25 352.5756,692.6719 L352.5756,695.3906 Z " fill="#000000"/><text fill="#000000" font-family="sans-serif" font-size="14" lengthAdjust="spacing" textLength="29.4287" x="369.3684" y="694.5967">Fine</text><line style="stroke:#181818;stroke-width:0.5;" x1="309.68" x2="426.7239" y1="705.75" y2="705.75"/><ellipse cx="319.68" cy="719.3984" fill="none" rx="3" ry="3" style="stroke:#038048;stroke-width:1;"/><text fill="#000000" font-family="sans-serif" font-size="14" lengthAdjust="spacing" textLength="67.5869" x="328.68" y="722.7451">Integer id</text><ellipse cx="319.68" cy="735.6953" fill="none" rx="3" ry="3" style="stroke:#038048;stroke-width:1;"/><text fill="#000000" font-family="sans-serif" font-size="14" lengthAdjust="spacing" textLength="81.6895" x="328.68" y="739.042">String plate</text><ellipse cx="319.68" cy="751.9922" fill="none" rx="3" ry="3" style="stroke:#038048;stroke-width:1;"/><text fill="#000000" font-family="sans-serif" font-size="14" lengthAdjust="spacing" textLength="93.0439" x="328.68" y="755.3389">Float amount</text><ellipse cx="319.68" cy="768.2891" fill="none" rx="3" ry="3" style="stroke:#038048;stroke-width:1;"/><text fill="#000000" font-family="sans-serif" font-size="14" lengthAdjust="spacing" textLength="77.7998" x="328.68" y="771.6357">String date</text><line style="stroke:#181818;stroke-width:0.5;" x1="309.68" x2="426.7239" y1="778.9375" y2="778.9375"/><ellipse cx="319.68" cy="792.5859" fill="#84BE84" rx="3" ry="3" style="stroke:#038048;stroke-width:1;"/><text fill="#000000" font-family="sans-serif" font-size="14" lengthAdjust="spacing" textLength="37.2764" x="328.68" y="795.9326">add()</text><ellipse cx="319.68" cy="808.8828" fill="#84BE84" rx="3" ry="3" style="stroke:#038048;stroke-width:1;"/><text fill="#000000" font-family="sans-serif" font-size="14" lengthAdjust="spacing" textLength="55.0293" x="328.68" y="812.2295">delete()</text></g><!--reverse link User to Driver--><g class="link" data-entity-1="User" data-entity-2="Driver" data-source-line="53" data-uid="lnk9" id="link_User_Driver"><path codeLine="53" d="M354.098,180.8077 C344.498,206.6277 338.36,223.14 329.93,245.82" fill="none" id="User-backto-Driver" style="stroke:#181818;stroke-width:1;"/><polygon fill="none" points="358.28,169.56,352.4398,173.7899,354.098,180.8077,359.9383,176.5778,358.28,169.56" style="stroke:#181818;stroke-width:1;"/><text fill="#000000" font-family="sans-serif" font-size="13" lengthAdjust="spacing" textLength="22.4834" x="347.2" y="212.1469">is a</text></g><!--reverse link User to Controller--><g class="link" data-entity-1="User" data-entity-2="Controller" data-source-line="54" data-uid="lnk10" id="link_User_Controller"><path codeLine="54" d="M412.1313,180.9734 C429.3013,246.9734 449.71,325.39 461.97,372.47" fill="none" id="User-backto-Controller" style="stroke:#181818;stroke-width:1;"/><polygon fill="none" points="409.11,169.36,406.7495,176.1738,412.1313,180.9734,414.4918,174.1596,409.11,169.36" style="stroke:#181818;stroke-width:1;"/><text fill="#000000" font-family="sans-serif" font-size="13" lengthAdjust="spacing" textLength="22.4834" x="422.2" y="212.1469">is a</text></g><!--link Driver to Car--><g class="link" data-entity-1="Driver" data-entity-2="Car" data-source-line="56" data-uid="lnk11" id="link_Driver_Car"><path codeLine="56" d="M291.14,343.46 C287.25,353.13 283.41,363.3 280.2,372.97 C270.1,403.46 261.1,437.98 254.2,466.97" fill="none" id="Driver-Car" style="stroke:#181818;stroke-width:1;"/><text fill="#000000" font-family="sans-serif" font-size="13" lengthAdjust="spacing" textLength="60.7661" x="281.2" y="409.6869">owns 0..*</text></g><!--reverse link Car to Ticket--><g class="link" data-entity-1="Car" data-entity-2="Ticket" data-source-line="57" data-uid="lnk12" id="link_Car_Ticket"><path codeLine="57" d="M183.1135,606.5706 C162.3335,633.3506 145.6,654.92 124.83,681.69" fill="none" id="Car-backto-Ticket" style="stroke:#181818;stroke-width:1;"/><polygon fill="none" points="190.47,597.09,183.6315,599.3781,183.1135,606.5706,189.952,604.2825,190.47,597.09" style="stroke:#181818;stroke-width:1;"/><text fill="#000000" font-family="sans-serif" font-size="13" lengthAdjust="spacing" textLength="50.1465" x="164.2" y="639.8169">has 0..*</text></g><!--reverse link Ticket to Payment--><g class="link" data-entity-1="Ticket" data-entity-2="Payment" data-source-line="58" data-uid="lnk13" id="link_Ticket_Payment"><path codeLine="58" d="M75.2,823.78 C75.2,850.84 75.2,870.05 75.2,896.16" fill="none" id="Ticket-backto-Payment" style="stroke:#181818;stroke-width:1;"/><polygon fill="#181818" points="75.2,811.78,71.2,817.78,75.2,823.78,79.2,817.78,75.2,811.78" style="stroke:#181818;stroke-width:1;"/><text fill="#000000" font-family="sans-serif" font-size="13" lengthAdjust="spacing" textLength="35.3818" x="76.2" y="862.5969">has 1</text></g><!--reverse link Car to Fine--><g class="link" data-entity-1="Car" data-entity-2="Fine" data-source-line="59" data-uid="lnk14" id="link_Car_Fine"><path codeLine="59" d="M271.182,608.1569 C278.292,623.7369 281.49,629.18 290.2,643.75 C296.09,653.6 302.76,663.61 309.67,673.32" fill="none" id="Car-backto-Fine" style="stroke:#181818;stroke-width:1;"/><polygon fill="none" points="266.2,597.24,265.052,604.3591,271.182,608.1569,272.33,601.0378,266.2,597.24" style="stroke:#181818;stroke-width:1;"/><text fill="#000000" font-family="sans-serif" font-size="13" lengthAdjust="spacing" textLength="50.1465" x="291.2" y="639.8169">has 0..*</text></g><!--link Ticket to Driver--><g class="link" data-entity-1="Ticket" data-entity-2="Driver" data-source-line="60" data-uid="lnk15" id="link_Ticket_Driver"><path codeLine="60" d="M59.41,681.57 C48.38,622.53 41.04,534.21 75.2,467.27 C115.16,388.97 203.8491,340.4559 260.7191,315.6859" fill="none" id="Ticket-to-Driver" style="stroke:#181818;stroke-width:1;"/><polygon fill="#181818" points="266.22,313.29,256.3714,313.2166,261.6359,315.2866,259.566,320.5511,266.22,313.29" style="stroke:#181818;stroke-width:1;"/><text fill="#000000" font-family="sans-serif" font-size="13" lengthAdjust="spacing" textLength="88.2896" x="76.2" y="536.5769">purchased by</text></g><!--link Fine to Driver--><g class="link" data-entity-1="Fine" data-entity-2="Driver" data-source-line="61" data-uid="lnk16" id="link_Fine_Driver"><path codeLine="61" d="M366.97,673.49 C364.87,581.57 359.46,428.03 346.2,372.97 C343.83,363.12 342.5501,358.4999 338.6101,348.9099" fill="none" id="Fine-to-Driver" style="stroke:#181818;stroke-width:1;"/><polygon fill="#181818" points="336.33,343.36,336.0503,353.2049,338.2301,347.9849,343.4501,350.1647,336.33,343.36" style="stroke:#181818;stroke-width:1;"/><text fill="#000000" font-family="sans-serif" font-size="13" lengthAdjust="spacing" textLength="58.8301" x="366.2" y="536.5769">issued to</text></g><!--link Controller to Fine--><g class="link" data-entity-1="Controller" data-entity-2="Fine" data-source-line="62" data-uid="lnk17" id="link_Controller_Fine"><path codeLine="62" d="M467.03,437.73 C462.63,476.03 453.23,542.19 436.2,596.75 C428.16,622.52 419.2617,644.2349 408.0617,668.1849" fill="none" id="Controller-to-Fine" style="stroke:#181818;stroke-width:1;"/><polygon fill="#181818" points="405.52,673.62,412.9559,667.1618,407.6381,669.0908,405.7091,663.773,405.52,673.62" style="stroke:#181818;stroke-width:1;"/><text fill="#000000" font-family="sans-serif" font-size="13" lengthAdjust="spacing" textLength="40.168" x="464.2" y="536.5769">issues</text></g><!--SRC=[XLBBJiCm4BpxAto4HgdWsWCNKAMUG08-O1klWeLZH_QQgaByEtx5IIY8syxEpkp3xXGunryTMlx9ceCcx4Fe0zOm86kUoKhTynLmVatY059LD0R3ax62DShqKbzTfy1u2j4NOrrg-63bHsvfiPUEqCOwFmeWZ950XIcgYdkZoHgbiaewvt4lzRe44ZVDeO9NHKSBMbGqcD20DI34xyrUPFUEjBo8dCMEm99OcgCM6U-L0UAZbHrExjNp2Su3wWlJB871U4tLCBlzC8Zh_Z5IsVLVhzMgwT5DsqwFiUFISPZJYuiNYfNAnyX2J9kJTlnckzsmYAEgd6x7tw0m9RC9v7I3pDvMKLhjKjAsT_DmexTTA431ZsUM12iw_GZ1oR35tB6YU2VUVGC0]--></g></svg>